<?xml version="1.0" encoding="iso-8859-1"?>
<!-- Generator: Adobe Illustrator 19.0.0, SVG Export Plug-In . SVG Version: 6.00 Build 0)  -->
<svg xmlns="http://www.w3.org/2000/svg" xmlns:xlink="http://www.w3.org/1999/xlink" version="1.1" id="Capa_1" x="0px" y="0px" viewBox="0 0 508.1 508.1" style="enable-background:new 0 0 508.1 508.1;" xml:space="preserve" width="512px" height="512px">
<g>
	<g>
		<path d="M421.6,323.9c-15-36.7-45.3-63.5-83-73.6c-7.1-1.9-10.7-2.7-56,98.7l-10.8-70.3h15v-16.4h-65.5v16.4h15l-10.8,70    c-45-101.3-48.6-100.4-55.5-98.5c-62.4,17.3-84.5,67.6-90.1,95.8c0,0-14.9,60.3-14.9,162.1h378.1    C443.1,389.6,424.4,330.9,421.6,323.9z M252.8,278.7h2.3l15.1,98c-5,11.3-10.4,23.6-16.2,37c-5.9-13.5-11.2-25.8-16.2-37.2    L252.8,278.7z M344.1,409.7v81.9H163.9v-81.9h-16.4v81.9H81.3c0-80.1,14.6-142.5,14.6-142.5c4.9-24.4,23.9-65.6,73.1-81.6    c11.6,20.2,85,187.4,85,187.4s73.8-167.1,85.4-187.2c30.4,9.8,54.6,32.3,67,62.5c2.4,5.9,20.3,77.3,20.3,161.5h-66.2v-0.1v-81.9    H344.1z" fill="#FFFFFF"/>
	</g>
</g>
<g>
	<g>
		<path d="M254,0L147.5,26.6v112.9h8.6c4.1,50.9,45.4,106.4,97.9,106.4s93.8-55.5,97.9-106.5h8.6V26.6L254,0z M254,229.6    c-42.6,0-77.4-47.4-81.5-90.1h163C331.4,182.1,296.6,229.6,254,229.6z M344.1,123.1H163.9V39.4L254,16.9l90.1,22.5V123.1z" fill="#FFFFFF"/>
	</g>
</g>
<g>
	<g>
		<polygon points="262.2,57.6 262.2,41.2 245.8,41.2 245.8,57.6 229.4,57.6 229.4,74 245.8,74 245.8,90.3 262.2,90.3 262.2,74     278.6,74 278.6,57.6   " fill="#FFFFFF"/>
	</g>
</g>
<g>
</g>
<g>
</g>
<g>
</g>
<g>
</g>
<g>
</g>
<g>
</g>
<g>
</g>
<g>
</g>
<g>
</g>
<g>
</g>
<g>
</g>
<g>
</g>
<g>
</g>
<g>
</g>
<g>
</g>
</svg>
