<?xml version="1.0" encoding="iso-8859-1"?>
<!-- Generator: Adobe Illustrator 19.0.0, SVG Export Plug-In . SVG Version: 6.00 Build 0)  -->
<svg version="1.1" id="Layer_1" xmlns="http://www.w3.org/2000/svg" xmlns:xlink="http://www.w3.org/1999/xlink" x="0px" y="0px"
	 viewBox="0 0 512 512" style="enable-background:new 0 0 512 512;" xml:space="preserve">
<g>
	<g>
		<g>
			<path d="M455.492,381.09c-0.051-0.06-0.068-0.137-0.119-0.196c-0.06-0.051-0.137-0.068-0.196-0.12
				c-13.892-13.824-33.015-22.374-54.11-22.374c-42.342,0-76.8,34.458-76.8,76.8c0,21.094,8.55,40.218,22.374,54.11
				c0.051,0.06,0.068,0.137,0.12,0.196c0.06,0.051,0.137,0.068,0.196,0.119C360.849,503.45,379.972,512,401.067,512
				c42.342,0,76.8-34.458,76.8-76.8C477.867,414.106,469.316,394.982,455.492,381.09z M341.333,435.2
				c0-32.939,26.795-59.733,59.733-59.733c13.397,0,25.737,4.489,35.712,11.955l-83.49,83.49
				C345.822,460.937,341.333,448.597,341.333,435.2z M401.067,494.933c-13.397,0-25.737-4.489-35.712-11.955l83.49-83.49
				c7.467,9.975,11.955,22.315,11.955,35.712C460.8,468.139,434.005,494.933,401.067,494.933z"/>
			<path d="M324.267,494.933H76.8c-14.114,0-25.6-11.486-25.6-25.6v-25.6h247.467c4.71,0,8.533-3.823,8.533-8.533
				s-3.823-8.533-8.533-8.533H51.2V238.933h358.4v96.538c0,4.71,3.823,8.525,8.533,8.525s8.533-3.814,8.533-8.525V187.733
				c0-21.675-15.974-42.035-39.97-50.765l-45.363-15.121V102.4h8.533c4.71,0,8.533-3.823,8.533-8.533V25.6
				c0-14.114-11.486-25.6-25.6-25.6H128c-14.114,0-25.6,11.486-25.6,25.6v68.267c0,4.71,3.823,8.533,8.533,8.533h187.733
				c4.71,0,8.533-3.823,8.533-8.533V59.733c0-4.71-3.823-8.533-8.533-8.533s-8.533,3.823-8.533,8.533v25.6H256v-25.6
				c0-4.71-3.823-8.533-8.533-8.533s-8.533,3.823-8.533,8.533v25.6H204.8v-25.6c0-4.71-3.823-8.533-8.533-8.533
				s-8.533,3.823-8.533,8.533v25.6H153.6v-25.6c0-4.71-3.823-8.533-8.533-8.533s-8.533,3.823-8.533,8.533v25.6h-17.067V25.6
				c0-4.702,3.831-8.533,8.533-8.533h204.8c4.702,0,8.533,3.831,8.533,8.533v59.733H332.8c-4.71,0-8.533,3.823-8.533,8.533V128
				c0,3.678,2.347,6.938,5.837,8.098l50.978,16.99c17.058,6.204,28.518,20.122,28.518,34.645v34.133H51.2v-34.133
				c0-14.063,11.767-28.322,28.297-34.569l51.2-17.067c4.471-1.493,6.895-6.323,5.402-10.795c-1.493-4.471-6.315-6.903-10.795-5.402
				l-51.516,17.178c-23.714,8.951-39.654,29.312-39.654,50.654v281.6C34.133,492.86,53.274,512,76.8,512h247.467
				c4.71,0,8.533-3.823,8.533-8.533S328.977,494.933,324.267,494.933z"/>
			<path d="M213.333,392.533h34.133c4.71,0,8.533-3.823,8.533-8.533v-25.6h25.6c4.71,0,8.533-3.823,8.533-8.533v-34.133
				c0-4.71-3.823-8.533-8.533-8.533H256v-25.6c0-4.71-3.823-8.533-8.533-8.533h-34.133c-4.71,0-8.533,3.823-8.533,8.533v25.6h-25.6
				c-4.71,0-8.533,3.823-8.533,8.533v34.133c0,4.71,3.823,8.533,8.533,8.533h25.6V384C204.8,388.71,208.623,392.533,213.333,392.533
				z M187.733,341.333v-17.067h25.6c4.71,0,8.533-3.823,8.533-8.533v-25.6h17.067v25.6c0,4.71,3.823,8.533,8.533,8.533h25.6v17.067
				h-25.6c-4.71,0-8.533,3.823-8.533,8.533v25.6h-17.067v-25.6c0-4.71-3.823-8.533-8.533-8.533H187.733z"/>
		</g>
	</g>
</g>
<g>
</g>
<g>
</g>
<g>
</g>
<g>
</g>
<g>
</g>
<g>
</g>
<g>
</g>
<g>
</g>
<g>
</g>
<g>
</g>
<g>
</g>
<g>
</g>
<g>
</g>
<g>
</g>
<g>
</g>
</svg>
