<?xml version="1.0" encoding="iso-8859-1"?>
<!-- Generator: Adobe Illustrator 18.0.0, SVG Export Plug-In . SVG Version: 6.00 Build 0)  -->
<!DOCTYPE svg PUBLIC "-//W3C//DTD SVG 1.1//EN" "http://www.w3.org/Graphics/SVG/1.1/DTD/svg11.dtd">
<svg xmlns="http://www.w3.org/2000/svg" xmlns:xlink="http://www.w3.org/1999/xlink" version="1.1" id="Capa_1" x="0px" y="0px" viewBox="0 0 479.335 479.335" style="enable-background:new 0 0 479.335 479.335;" xml:space="preserve" width="512px" height="512px">
<g id="XMLID_46_">
	<path id="XMLID_57_" d="M302.851,135.957v1.776c0,17.713-12.632,32.542-29.362,35.94c1.622,9.358,6.811,17.744,14.938,23.034   c9.82,6.398,22.068,7.357,32.745,2.611l26.44-11.735l-29.61-43.755c-3.516-5.214-9.227-7.747-15.064-7.871H302.851z" fill="#FFFFFF"/>
	<path id="XMLID_56_" d="M206.863,230.014l-11.542,54.29l46.842,26.269l87.151-23.293c1.824-0.482,3.686-0.747,5.549-1.044   l-9.826-46.272l-5.595-26.315c-4.044,1.076-8.144,1.814-12.266,1.814c-9.061,0-18.055-2.601-25.926-7.714   c-11.845-7.699-19.154-20.144-20.906-33.919c-17.456-2.814-30.859-17.862-30.859-36.097v-1.8h-2.643   c-6.428,0.141-12.646,3.314-15.981,9.352L148.8,258.215l32.535,18.241L206.863,230.014z" fill="#FFFFFF"/>
	<path id="XMLID_55_" d="M289.689,135.957l-10.472-0.008l-36.571-0.008v1.792c0,12.967,10.551,23.519,23.525,23.519   c12.967,0,23.518-10.552,23.518-23.519V135.957z" fill="#FFFFFF"/>
	<path id="XMLID_54_" d="M454.44,339.319l-99.161-33.632c-6.833-2.322-14.229-2.573-21.235-0.694l-94.344,25.201l-113.817-63.813   c-17.659-9.936-40.008-3.617-49.904,14.043c-9.904,17.657-3.615,39.99,14.042,49.895l126.816,71.107   c8.331,4.676,18.165,5.931,27.391,3.436l98.015-26.19l88.656,30.072c3.896,1.325,7.87,1.955,11.775,1.955   c15.273,0,29.526-9.624,34.708-24.896C483.888,366.632,473.609,345.826,454.44,339.319z" fill="#FFFFFF"/>
	<path id="XMLID_53_" d="M56.373,264.8c3.101,0,6.109-0.399,9.015-1.038c10.707-2.36,19.873-8.774,25.771-17.603   c4.425-6.639,7.028-14.604,7.028-23.176c0-23.112-18.725-41.83-41.814-41.83c-23.105,0-41.831,18.719-41.831,41.83   C14.542,246.073,33.267,264.8,56.373,264.8z" fill="#FFFFFF"/>
	<path id="XMLID_52_" d="M447.247,419.669h-41.207H259.82h-45.843L67.859,335.61l-33.524-19.287   c-10.994-6.32-24.975-2.541-31.278,8.439c-6.312,10.964-2.533,24.966,8.431,31.278l184.949,106.392   c3.474,2.003,7.41,3.054,11.423,3.054h239.387c12.656,0,22.909-10.253,22.909-22.909c0-6.936-3.147-13.075-8.018-17.276   C458.125,421.835,452.967,419.669,447.247,419.669z" fill="#FFFFFF"/>
	<path id="XMLID_51_" d="M363.057,180.725c0.833-6.344,6.031-11.299,12.6-11.299c7.131,0,12.921,5.774,12.921,12.919   c0,7.13-5.79,12.92-12.921,12.92c-2.75,0-5.158-1.044-7.247-2.509l-13.044,5.798l-28.849,12.794   c-2.08,0.927-4.261,1.465-6.42,2.081l12.024,17.784c3.584,5.298,9.444,8.189,15.453,8.189c3.093,0,6.203-0.763,9.094-2.368   l49.226-27.539c8.993-5.018,12.188-16.379,7.169-25.372c-2.728-4.879-7.364-7.855-12.437-8.931   c-1.286-4.481-3.663-8.471-6.928-11.618c-4.69-4.512-11.026-7.317-18.04-7.317c-11.134,0-20.579,7.028-24.328,16.846   c-1.098,2.892-1.769,5.985-1.769,9.242c0,1.435,0.203,2.814,0.429,4.186L363.057,180.725z" fill="#FFFFFF"/>
	<path id="XMLID_50_" d="M242.646,120.714c6.537,3.896,14.081,6.289,22.247,6.289c9.226,0,17.751-2.906,24.796-7.792   c5.487-3.803,9.904-8.899,13.162-14.767c3.476-6.257,5.635-13.364,5.635-21.032c0-5.431-1.115-10.582-2.938-15.367   c-13.294,3.351-26.931,5.197-40.654,5.197c-13.708,0-27.351-1.847-40.661-5.197c-1.816,4.793-2.922,9.936-2.922,15.367   c0,9.444,3.069,18.141,8.174,25.271C232.975,113.569,237.473,117.621,242.646,120.714z" fill="#FFFFFF"/>
	<path id="XMLID_47_" d="M224.833,56.161c13.122,3.522,26.588,5.283,40.061,5.283c13.475,0,26.947-1.761,40.063-5.283   c1.651-0.444,2.657-2.135,2.251-3.803c-2.33-9.717-4.684-26.253-7.022-36.08c-0.195-0.833-0.716-1.543-1.449-1.987   c-0.498-0.296-1.06-0.444-1.62-0.444c-0.273,0-0.554,0.031-0.811,0.101c-10.302,2.704-20.86,4.052-31.42,4.052   c-10.559,0-21.109-1.348-31.403-4.052c-0.265-0.07-0.538-0.101-0.803-0.101c-0.57,0-1.13,0.148-1.629,0.444   c-0.732,0.444-1.254,1.154-1.449,1.979c-2.346,9.827-4.698,26.37-7.028,36.095C222.176,54.026,223.165,55.717,224.833,56.161z    M253.821,32.885h5.174v-5.174h11.783v5.174h5.182v11.79h-5.182v5.167h-11.783v-5.167h-5.174V32.885z" fill="#FFFFFF"/>
</g>
<g>
</g>
<g>
</g>
<g>
</g>
<g>
</g>
<g>
</g>
<g>
</g>
<g>
</g>
<g>
</g>
<g>
</g>
<g>
</g>
<g>
</g>
<g>
</g>
<g>
</g>
<g>
</g>
<g>
</g>
</svg>
