<?xml version="1.0" encoding="iso-8859-1"?>
<!-- Generator: Adobe Illustrator 19.0.0, SVG Export Plug-In . SVG Version: 6.00 Build 0)  -->
<svg xmlns="http://www.w3.org/2000/svg" xmlns:xlink="http://www.w3.org/1999/xlink" version="1.1" id="Layer_1" x="0px" y="0px" viewBox="0 0 512 512" style="enable-background:new 0 0 512 512;" xml:space="preserve" width="512px" height="512px">
<g>
	<g>
		<path d="M495.304,267.13H366.63c-4.836-61.762-36.253-119.51-86.151-156.941c-13.753-10.296-31.122-12.437-46.27-7.276    c6.733-10.425,10.661-22.824,10.661-36.131C244.87,29.959,214.911,0,178.087,0s-66.783,29.959-66.783,66.783    c0,36.824,29.959,66.783,66.783,66.783c9.886,0,19.267-2.176,27.717-6.047l-29.923,59.859l-61.034,61.035    c-5.375,5.375-9.374,11.757-11.829,18.718H16.696C7.475,267.13,0,274.606,0,283.826c0,9.22,7.475,16.696,16.696,16.696h16.696    v194.783c0,9.22,7.475,16.696,16.696,16.696s16.696-7.475,16.696-16.696V300.522h36.235c2.455,6.961,6.455,13.343,11.829,18.718    c19.577,19.578,51.249,19.581,70.828,0l18.718-18.718h62.737v161.391c0,27.618,22.469,50.087,50.087,50.087    s50.087-22.469,50.087-50.087V300.522h77.913v194.783c0,9.22,7.475,16.696,16.696,16.696s16.696-7.475,16.696-16.696V300.522    h16.696c9.22,0,16.696-7.475,16.696-16.696C512,274.606,504.525,267.13,495.304,267.13z M178.087,100.174    c-18.412,0-33.391-14.979-33.391-33.391c0-18.412,14.979-33.391,33.391-33.391c18.412,0,33.391,14.979,33.391,33.391    C211.478,85.195,196.499,100.174,178.087,100.174z M237.785,267.13c15.855-15.855,18.077-17.573,21.957-23.902    c2.876,7.741,4.925,15.771,6.13,23.902H237.785z M273.084,197.376c-7.259-10.345-22.945-9.182-28.599,2.125l-12.491,24.981    c-0.824,1.638-1.87,3.094-3.149,4.365l-43.17,43.171c-0.002,0.002-0.003,0.003-0.006,0.006l-23.605,23.605    c-6.529,6.528-17.076,6.529-23.607,0c-6.528-6.528-6.529-17.076,0-23.607l62.951-62.952c1.27-1.269,2.325-2.735,3.129-4.341    c32.14-64.296,30.857-62.237,32.548-64.491c5.515-7.354,16.004-8.844,23.37-3.33c41.521,31.147,67.93,78.931,72.68,130.221    h-33.548C296.8,242.167,287.785,218.322,273.084,197.376z M333.913,461.913c0,9.206-7.49,16.696-16.696,16.696    c-9.206,0-16.696-7.49-16.696-16.696V300.522h33.391V461.913z" fill="#FFFFFF"/>
	</g>
</g>
<g>
</g>
<g>
</g>
<g>
</g>
<g>
</g>
<g>
</g>
<g>
</g>
<g>
</g>
<g>
</g>
<g>
</g>
<g>
</g>
<g>
</g>
<g>
</g>
<g>
</g>
<g>
</g>
<g>
</g>
</svg>
